<svg width="255" height="255" viewBox="0 0 255 255" fill="none" xmlns="http://www.w3.org/2000/svg">
    <rect width="255" height="255" rx="45" fill="#DEDEDE"/>
    <path d="M123.564 214.6C105.831 214.6 91.6307 211.267 80.9641 204.6C70.2974 197.8 64.9641 187.467 64.9641 173.6C64.9641 166.267 66.2307 160.667 68.7641 156.8C71.2974 152.933 75.0307 151 79.9641 151C83.5641 151 86.4974 151.933 88.7641 153.8C91.0307 155.667 92.1641 158.067 92.1641 161C92.1641 163.667 91.9641 166 91.5641 168C91.5641 168.533 91.4307 169.467 91.1641 170.8C91.0307 172.133 90.9641 173.533 90.9641 175C90.9641 181 93.9641 185.467 99.9641 188.4C106.097 191.333 114.631 192.8 125.564 192.8C136.897 192.8 145.764 190.8 152.164 186.8C158.564 182.667 161.764 176.933 161.764 169.6C161.764 165.067 160.297 161.2 157.364 158C154.431 154.667 150.764 151.933 146.364 149.8C141.964 147.533 135.764 144.8 127.764 141.6C117.497 137.6 109.097 133.8 102.564 130.2C96.1641 126.6 90.6307 121.733 85.9641 115.6C81.4307 109.333 79.1641 101.6 79.1641 92.4C79.1641 82.8 81.6974 74.2667 86.7641 66.8C91.9641 59.3333 99.3641 53.5333 108.964 49.4C118.697 45.2667 130.097 43.2 143.164 43.2C152.897 43.2 161.831 44.6667 169.964 47.6C178.097 50.4 184.564 54.7333 189.364 60.6C194.297 66.4667 196.764 73.6667 196.764 82.2C196.764 90.6 195.497 96.9333 192.964 101.2C190.431 105.467 186.697 107.6 181.764 107.6C178.297 107.6 175.364 106.533 172.964 104.4C170.697 102.267 169.564 99.7333 169.564 96.8C169.564 94.2667 169.764 91.9333 170.164 89.8C170.564 85.8 170.764 83.2667 170.764 82.2C170.764 76.6 168.031 72.3333 162.564 69.4C157.097 66.4667 150.297 65 142.164 65C130.697 65 121.897 67.1333 115.764 71.4C109.764 75.5333 106.764 81.4 106.764 89C106.764 94.0667 108.297 98.4 111.364 102C114.564 105.6 118.497 108.6 123.164 111C127.831 113.4 134.364 116.267 142.764 119.6C152.897 123.733 161.031 127.467 167.164 130.8C173.297 134.133 178.497 138.667 182.764 144.4C187.164 150.133 189.364 157.2 189.364 165.6C189.364 181.333 183.364 193.467 171.364 202C159.497 210.4 143.564 214.6 123.564 214.6Z" fill="black"/>
</svg>
    